<svg xmlns="http://www.w3.org/2000/svg" xmlns:xlink="http://www.w3.org/1999/xlink" width="49" height="44" viewBox="0 0 49 44">
    <use fill="#F2F2F2" data-name="Vector" transform="scale(.98)" xlink:href="#a"/>
    <defs>
        <path id="a" d="M48.603 35.993h-2.795V19.388c0-7.954-6.487-14.417-14.57-14.417-.2 0-.4 0-.5.1l-1.197.596c-.799-.994-1.896-1.59-3.094-1.988.1-.597.4-1.392 1.297-2.188L26.447 0c-1.397 1.193-1.896 2.486-2.096 3.48-3.193.199-5.688 2.883-5.688 6.065 0 .497.1.994.2 1.492L4.49 18.294h-.1-.1-.1l-.1.1s0 .099-.099.099v17.201H1.198c-.699 0-1.198.497-1.198 1.193 0 .696.499 1.193 1.198 1.193h2.994l1.097 5.37c.1.596.6.993 1.198.993h37.026c.599 0 1.098-.397 1.198-.994l1.097-5.369h2.994c.699 0 1.198-.497 1.198-1.193-.2-.298-.699-.895-1.397-.895zM24.95 5.469c2.296 0 4.092 1.889 4.092 4.076 0 2.287-1.896 4.077-4.092 4.077-2.295 0-4.092-1.89-4.092-4.077-.1-2.287 1.797-4.076 4.092-4.076zm17.465 36.887H7.385l-.798-3.977h36.627l-.799 3.977zm.998-6.363H6.287V24.26c.5.2.899.498 1.398.796.898.596 1.996 1.392 3.992 1.392s3.093-.796 3.992-1.392c.798-.597 1.297-.994 2.595-.994 1.297 0 1.796.397 2.594.994.898.596 1.996 1.392 3.992 1.392s3.094-.796 3.992-1.392c.799-.597 1.298-.994 2.595-.994 1.298 0 1.796.397 2.595.994l.898.596v4.773c0 1.69 1.397 3.082 3.094 3.082 1.697 0 3.094-1.392 3.094-3.082v-4.773l.898-.596c.499-.298.898-.597 1.397-.796v11.733zm.1-14.119c-1.297.2-2.096.796-2.794 1.293-.4.298-.699.497-1.098.696-.4.199-.699.596-.699 1.093v5.469a.68.68 0 0 1-.698.696.681.681 0 0 1-.7-.696v-5.469c0-.497-.299-.894-.698-1.093-.399-.2-.798-.398-1.097-.696-.899-.597-1.996-1.392-3.992-1.392s-3.094.795-3.992 1.392c-.799.596-1.298.994-2.595.994-1.298 0-1.797-.398-2.595-.994-.898-.597-1.996-1.392-3.992-1.392s-3.094.795-3.992 1.392c-.798.596-1.297.994-2.595.994-1.297 0-1.796-.398-2.595-.994-.698-.497-1.497-1.094-2.794-1.293v-1.292h11.577c.698 0 1.197-.498 1.197-1.194s-.499-1.193-1.197-1.193h-7.785l9.68-4.971c1.099 1.491 2.895 2.386 4.791 2.386 3.393 0 6.088-2.684 6.088-6.065 0-.596-.1-1.193-.3-1.79l.8-.397c6.187.1 11.277 4.872 11.875 10.837H22.555c-.699 0-1.198.497-1.198 1.194 0 .695.5 1.193 1.198 1.193h20.858v1.292h.1z"/>
    </defs>
</svg>
