<?xml version="1.0" encoding="UTF-8"?>
<svg width="39px" height="50px" viewBox="0 0 39 50" version="1.1" xmlns="http://www.w3.org/2000/svg" xmlns:xlink="http://www.w3.org/1999/xlink">
    <!-- Generator: Sketch 49.1 (51147) - http://www.bohemiancoding.com/sketch -->
    <title>drink</title>
    <desc>Created with Sketch.</desc>
    <defs></defs>
    <g id="Page-1" stroke="none" stroke-width="1" fill="none" fill-rule="evenodd">
        <g id="LK-reg-3" transform="translate(-106.000000, -523.000000)" fill="#FFFFFF" fill-rule="nonzero">
            <g id="icon-menu" transform="translate(0.000000, 198.000000)">
                <g id="drink" transform="translate(106.000000, 325.000000)">
                    <g id="Vector" transform="translate(21.000000, 37.000000)">
                        <g id="path0_fill-link" transform="translate(0.770000, 0.834000)">
                            <path d="M0.863469,4.44043 L3.56181,4.44043 C4.02952,4.44043 4.42528,4.04332 4.42528,3.57401 L4.42528,0.866425 C4.42528,0.397111 4.02952,1.10172e-06 3.56181,1.10172e-06 L0.863469,1.10172e-06 C0.395757,1.10172e-06 -2.55638e-15,0.397111 -2.55638e-15,0.866425 L-2.55638e-15,3.57401 C-5.11276e-15,4.04332 0.395757,4.44043 0.863469,4.44043 Z M1.69096,2.70758 L1.69096,1.69675 L2.69834,1.69675 L2.69834,2.70758 L1.69096,2.70758 Z" id="path0_fill"></path>
                        </g>
                    </g>
                    <g id="Vector" transform="translate(24.000000, 31.000000)">
                        <g id="path1_fill-link" transform="translate(0.940000, 0.092000)">
                            <path d="M2.14968,5.29783 C2.29359,5.44224 2.50946,5.55054 2.7613,5.55054 C2.97717,5.55054 3.19303,5.47834 3.37292,5.29783 L5.27975,3.38448 C5.60355,3.05957 5.60355,2.51805 5.27975,2.15704 L3.37292,0.243683 C3.04912,-0.0812263 2.50946,-0.0812263 2.18566,0.243683 L0.242851,2.19314 C-0.0809502,2.51805 -0.0809502,3.05957 0.242851,3.42058 L2.14968,5.29783 Z M2.04174,2.77076 L2.72532,2.08484 L3.4089,2.77076 L2.72532,3.45668 L2.04174,2.77076 Z" id="path1_fill"></path>
                        </g>
                    </g>
                    <g id="Vector">
                        <g id="path2_fill-link">
                            <path d="M32.7039,14.657 C29.6458,14.657 27.0194,16.9314 26.5157,19.9639 L19.8598,19.9639 L19.8598,14.1155 C19.8598,11.083 17.5572,8.51986 14.571,8.15884 L14.571,1.91336 C14.571,0.866426 13.7076,0 12.6642,0 L7.37546,0 C6.3321,0 5.46863,0.866426 5.46863,1.91336 L5.46863,8.15884 C2.37454,8.41155 0,11.0108 0,14.1155 L0,47.1841 C0,48.7365 1.25923,50 2.80627,50 L32.7039,49.9639 C33.2795,49.9639 33.7472,49.5307 33.7472,48.9531 L33.7472,27.2563 C36.7334,26.7509 39,24.0794 39,20.9747 C39,17.509 36.1577,14.657 32.7039,14.657 Z M28.6744,24.657 C28.6384,24.6931 28.6384,24.6931 28.6024,24.7292 L28.5664,24.7653 C28.0268,25.2347 27.1633,25.1986 26.6956,24.657 C26.6596,24.6209 26.6236,24.5848 26.5876,24.5487 L26.5517,24.5126 C25.9041,23.8628 25.0046,23.5379 24.1052,23.574 C23.2057,23.6101 22.3423,23.9711 21.6946,24.657 C21.6587,24.6931 21.6227,24.7292 21.5867,24.7653 C21.083,25.1986 20.3994,25.1986 19.8958,24.8014 L19.8958,22.0578 L31.6605,22.0578 L31.6605,23.6101 C30.5452,23.4657 29.4299,23.8267 28.6744,24.657 Z M23.2057,26.1372 C23.2417,26.1011 23.2777,26.065 23.3137,26.0289 C23.8533,25.5596 24.7168,25.5957 25.1845,26.1372 C25.8681,26.8231 26.7675,27.2202 27.7389,27.2202 C28.6744,27.2202 29.5378,26.787 30.1854,26.1011 C30.2214,26.065 30.2574,26.0289 30.2934,25.9928 C30.6531,25.6679 31.1928,25.5596 31.6605,25.7401 L31.6605,44.2238 L19.8598,44.2238 L19.8598,27.148 C21.047,27.4368 22.3423,27.0758 23.2057,26.1372 Z M19.7878,47.7978 C19.8238,47.5812 19.8598,47.3646 19.8598,47.1841 L19.8598,46.3899 L31.6605,46.3899 L31.6605,47.7978 L19.7878,47.7978 Z M32.7039,19.9278 L28.6384,19.9278 C29.1061,18.0866 30.797,16.7509 32.7039,16.7509 C35.0065,16.7509 36.8773,18.6643 36.8773,20.9747 C36.8773,22.9242 35.5821,24.5848 33.7472,25.0542 L33.7472,21.0108 C33.7472,20.3971 33.2795,19.9278 32.7039,19.9278 Z M7.8072,3.61011 L7.8072,2.34657 L12.2325,2.34657 L12.2325,3.61011 L7.8072,3.61011 Z M7.8072,7.90614 L7.8072,5.95668 L12.2325,5.95668 L12.2325,7.90614 L7.8072,7.90614 Z M2.33856,18.1588 L2.33856,14.1155 C2.33856,12.0939 3.95756,10.4693 5.97232,10.4693 L13.8875,10.4693 C15.9022,10.4693 17.5212,12.0939 17.5212,14.1155 L17.5212,18.1588 L2.33856,18.1588 Z M2.33856,31.4801 L2.33856,20.5054 L17.5212,20.5054 L17.5212,31.3357 L2.33856,31.4801 Z M17.0535,47.6534 L2.80627,47.6534 C2.55443,47.6534 2.33856,47.4368 2.33856,47.1841 L2.33856,33.8267 L17.5212,33.6823 L17.5212,47.148 C17.5212,47.4368 17.3054,47.6534 17.0535,47.6534 Z" id="path2_fill"></path>
                        </g>
                    </g>
                    <g id="Vector" transform="translate(31.000000, 17.000000)">
                        <g id="path3_fill-link" transform="translate(0.840000, 0.509000)">
                            <polygon id="path3_fill" points="1.72694 0 0 0 0 1.73285 1.72694 1.73285"></polygon>
                        </g>
                    </g>
                    <g id="Vector" transform="translate(34.000000, 19.000000)">
                        <g id="path4_fill-link" transform="translate(0.250000, 0.928000)">
                            <polygon id="path4_fill" points="2.08672 0 0 0 0 2.09386 2.08672 2.09386"></polygon>
                        </g>
                    </g>
                </g>
            </g>
        </g>
    </g>
</svg>