<?xml version="1.0" encoding="UTF-8"?>
<svg width="53px" height="53px" viewBox="0 0 53 53" version="1.1" xmlns="http://www.w3.org/2000/svg" xmlns:xlink="http://www.w3.org/1999/xlink">
    <!-- Generator: Sketch 49.1 (51147) - http://www.bohemiancoding.com/sketch -->
    <title>pizza</title>
    <desc>Created with Sketch.</desc>
    <defs></defs>
    <g id="Page-1" stroke="none" stroke-width="1" fill="none" fill-rule="evenodd">
        <g id="LK-reg-3" transform="translate(-99.000000, -622.000000)" fill="#FFFFFF" fill-rule="nonzero">
            <g id="icon-menu" transform="translate(0.000000, 198.000000)">
                <g id="pizza" transform="translate(99.000000, 424.000000)">
                    <g id="Vector" transform="translate(7.000000, 0.000000)">
                        <path d="M20.349999,3.23181 L20.3970549,25.7119 L45.9952,25.6488 L45.9952,24.8606 C45.9638,11.1455 34.8274,0.0001 21.181311,0.0001 C21.165625,0.0001 21.14994,0.0001 21.134255,0.0001 L20.349999,0.0001 L20.349999,3.23181 Z M21.96557,24.1512 L21.91851,4.83978 C26.95343,5.02895 31.706,7.09409 35.2979,10.6884 C38.8898,14.2827 40.9759,19.0435 41.1798,24.1039 L21.96557,24.1512 Z M42.7483,24.1039 C42.3092,12.7693 33.1961,3.64168 21.91851,3.24757 L21.91851,1.57654 C27.81611,1.76572 33.3686,4.16191 37.5723,8.37101 C41.7759,12.5801 44.2071,18.145 44.411,24.0724 L42.7483,24.1039 Z" id="path0_fill"></path>
                        <path d="M13.02723,39.0485995 C11.45872,39.0485995 10.172536,40.2467 10.0156851,41.77585 L10.0000002,41.77585 L10.0000002,42.09113 C10.0000002,43.76216 11.3646,45.13367 13.02723,45.13367 C14.68985,45.13367 16.05445,43.77793 16.05445,42.09113 L16.05445,41.77585 L16.03877,41.77585 C15.88192,40.2467 14.59574,39.0485995 13.02723,39.0485995 Z M13.02723,43.55722 C12.22729,43.55722 11.56851,42.89512 11.56851,42.09113 C11.56851,41.28715 12.22729,40.62504 13.02723,40.62504 C13.82717,40.62504 14.48594,41.28715 14.48594,42.09113 C14.48594,42.89512 13.82717,43.55722 13.02723,43.55722 Z" id="path1_fill"></path>
                        <path d="M0.10999988,22.10189 C0.10999988,24.19856 1.81968,25.91688 3.9058,25.91688 C5.99192,25.91688 7.7016,24.19856 7.7016,22.10189 C7.7016,19.98946 5.99192,18.2869 3.9058,18.2869 C1.80399,18.2869 0.10999988,20.00522 0.10999988,22.10189 Z M3.9058,19.86334 C5.12924,19.86334 6.13308,20.87227 6.13308,22.10189 C6.13308,23.33152 5.12924,24.34044 3.9058,24.34044 C2.68236,24.34044 1.67851,23.33152 1.67851,22.10189 C1.67851,20.87227 2.68236,19.86334 3.9058,19.86334 Z" id="path2_fill"></path>
                        <path d="M3.90522,23.1423 C4.47695,23.1423 4.94043,22.67648 4.94043,22.10185 C4.94043,21.527226 4.47695,21.0614 3.90522,21.0614 C3.333483,21.0614 2.87,21.527226 2.87,22.10185 C2.87,22.67648 3.333483,23.1423 3.90522,23.1423 Z" id="path3_fill"></path>
                        <path d="M27.49621,36.904601 C25.51988,36.904601 23.920001,38.51257 23.920001,40.49889 C23.920001,42.48521 25.51988,44.09318 27.49621,44.09318 C29.47253,44.09318 31.07241,42.48521 31.07241,40.49889 C31.07241,38.51257 29.47253,36.904601 27.49621,36.904601 Z M27.49621,42.50097 C26.39825,42.50097 25.48851,41.6024 25.48851,40.48312 C25.48851,39.37961 26.38256,38.46528 27.49621,38.46528 C28.59416,38.46528 29.5039,39.36385 29.5039,40.48312 C29.5039,41.6024 28.60985,42.50097 27.49621,42.50097 Z" id="path4_fill"></path>
                        <path d="M4.78142,30.567299 L2.61688,32.00186 L1.001311,33.07384 L0.17000012,33.6256 L5.18924,41.3659 L7.6518,39.75796 L9.83203,38.3234 L4.78142,30.567299 Z M6.77343,38.41798 L5.62842,39.17468 L2.31886,34.08277 L4.32655,32.75856 L7.63611,37.85047 L6.77343,38.41798 Z" id="path5_fill"></path>
                        <path d="M24.97029,14.58225 L25.6918,14.58225 L27.29169,14.56649 L27.22895,8.62330012 L25.62906,8.6390643 L24.35857,8.6548291 L23.59,8.6548291 L23.6370558,12.62746 L23.6527395,14.61378 L24.97029,14.58225 Z M26.03688,9.83716 L26.06825,13.35263 L24.82912,13.36839 L24.79775,9.85293 L26.03688,9.83716 Z" id="path6_fill"></path>
                        <path d="M15.27026,11.8077002 L10.8,11.8077002 L10.8,16.20598 L15.27026,16.20598 L15.27026,11.8077002 Z M12.35283,14.62953 L12.35283,13.38414 L13.68606,13.38414 L13.68606,14.62953 L12.35283,14.62953 Z" id="path7_fill"></path>
                        <path d="M23.98026,34.2878 L19.51,34.2878 L19.51,38.68607 L23.98026,38.68607 L23.98026,34.2878 Z M21.06283,37.1254 L21.06283,35.88001 L22.39606,35.88001 L22.39606,37.1254 L21.06283,37.1254 Z" id="path8_fill"></path>
                        <path d="M13.94026,30.5831 L9.47,30.5831 L9.47,34.98137 L13.94026,34.98137 L13.94026,30.5831 Z M11.03851,33.40493 L11.03851,32.15954 L12.37175,32.15954 L12.37175,33.40493 L11.03851,33.40493 Z" id="path9_fill"></path>
                        <path d="M31.31778,15.1970002 C31.3021,15.1970002 31.3021,15.1970002 31.31778,15.1970002 C30.37667,15.1970002 29.49831,15.559582 28.83953,16.23745 C28.180758,16.89956 27.82,17.78237 27.82,18.72823 C27.82,20.66726 29.38851,22.2437 31.31778,22.2437 C31.41189,22.2437 31.506,22.2437 31.58443,22.22793 C33.4039,22.08605 34.81556,20.54114 34.81556,18.71247 C34.81556,16.77344 33.24705,15.1970002 31.31778,15.1970002 Z M33.24705,18.71247 C33.24705,19.78445 32.38437,20.66726 31.31778,20.66726 C30.25119,20.66726 29.38851,19.80021 29.37283,18.72823 C29.37283,18.20801 29.57673,17.71931 29.93749,17.35673 C30.26688,17.02567 30.69038,16.82074 31.16093,16.78921 C31.20799,16.78921 31.27073,16.78921 31.31778,16.78921 C32.38437,16.77344 33.24705,17.64049 33.24705,18.71247 Z" id="path10_fill"></path>
                        <path d="M27.23803,36.17951 C27.33214,36.17951 27.41056,36.19528 27.50467,36.19528 C29.29278,36.19528 30.79855,34.79224 30.92403,33.01086 C31.06519,31.11913 29.65353,29.448101 27.75564,29.3062216 C26.8459,29.2431639 25.95185,29.526926 25.2617,30.125974 C24.571556,30.72502 24.1480592,31.56054 24.0696337,32.47487 C23.928468,34.38237 25.35581,36.03763 27.23803,36.17951 Z M25.63815,32.60099 C25.66952,32.09653 25.90479,31.65512 26.28123,31.32407 C26.62631,31.02454 27.0498,30.8669 27.48899,30.8669 C27.53604,30.8669 27.5831,30.8669 27.63015,30.8669 C28.64969,30.94572 29.41826,31.8443 29.35552,32.86898 C29.27709,33.89367 28.38304,34.66613 27.34782,34.60307 C26.32829,34.54001 25.55972,33.64144 25.63815,32.60099 Z" id="path11_fill"></path>
                    </g>
                    <polygon id="path12_fill" points="34.3989573 21.1911596 30.7599999 21.1911596 30.7599999 22.7676027 34.3989573 22.7676027"></polygon>
                    <polygon id="path13_fill" points="13.4077481 14.0081858 11.8380941 14.0081858 11.8380941 16.6703355 13.4077481 16.6703355"></polygon>
                    <polygon id="path14_fill" points="29.51851 29.4796 27.95 29.4796 27.95 33.2473 29.51851 33.2473"></polygon>
                    <path d="M45.926,27.2568 L25.5981,27.2568 L25.5981,10.6096 L25.5981,4.87135 L25.5981,3.12149988 L24.8139,3.12149988 C11.1364,3.12149988 0,14.2985 0,28.0608 C0,41.8074 11.1364,53.0002 24.8139,53.0002 C38.4913,53.0002 49.6277,41.8074 49.6277,28.0608 L49.6277,27.2726 L45.926,27.2568 Z M24.8139,51.4237 C11.9991,51.4237 1.56851,40.9404 1.56851,28.0608 C1.56851,21.9127 3.93696,16.1114 8.23469,11.71311 C12.454,7.3779 18.0379,4.90288 24.0296,4.71371 L24.0296,6.38474 C21.6455,6.46356 19.3554,6.93649 17.2223,7.74048 L17.2223,7.72471 L16.9242,7.83506 C12.9402,9.42727 9.52086,12.13875 7.0583,15.6857 C4.76827,18.9963 3.46641,22.827 3.24682,26.8312 C3.24682,26.8785 3.24682,26.9258 3.23113,26.9731 C3.23113,27.1307 3.21545,27.2884 3.21545,27.4302 C3.21545,27.5091 3.21545,27.5721 3.21545,27.6509 C3.21545,27.7771 3.21545,27.9189 3.21545,28.0451 C3.21545,31.3556 3.93696,34.5242 5.36431,37.488 L5.50547,37.7717 L5.52116,37.7717 C6.6348,39.9945 8.1092,41.9808 9.86594,43.6834 L9.85025,43.6991 L10.0855,43.9198 C13.2853,46.9151 17.2536,48.8383 21.52,49.5004 C21.5357,49.5004 21.5357,49.5004 21.5513,49.5004 C21.7082,49.532 21.8807,49.5477 22.0376,49.5635 C22.0533,49.5635 22.0846,49.5635 22.1003,49.5793 C22.2572,49.595 22.414,49.6108 22.5552,49.6266 C22.5866,49.6266 22.6023,49.6266 22.6336,49.6423 C22.7905,49.6581 22.9316,49.6739 23.0885,49.6896 C23.1199,49.6896 23.1355,49.6896 23.1669,49.6896 C23.3238,49.7054 23.4806,49.7054 23.6532,49.7211 C23.6688,49.7211 23.6845,49.7211 23.7159,49.7211 C24.0767,49.7369 24.4531,49.7527 24.8139,49.7527 C27.6685,49.7527 30.4291,49.2009 33.0485,48.1132 L33.3309,47.9871 C34.8366,47.3407 36.264,46.5052 37.5658,45.5436 L37.5658,45.5593 L37.8168,45.3702 C43.0556,41.3818 46.1456,35.407 46.3809,28.849 L48.0435,28.849 C47.8396,34.8553 45.377,40.4832 41.0793,44.7238 C36.7032,49.0433 30.931,51.4237 24.8139,51.4237 Z M32.3741,46.6786 C32.3584,46.6786 32.3427,46.6944 32.327,46.6944 C32.2015,46.7417 32.0604,46.8047 31.9349,46.852 C31.9192,46.852 31.9035,46.8678 31.8878,46.8678 C31.7467,46.9151 31.6212,46.9624 31.48,47.0097 L31.4643,47.0097 C29.5978,47.6718 27.6215,48.0501 25.5981,48.1289 L25.5981,28.849 L44.8124,28.849 C44.6085,33.9882 42.491,38.8122 38.805,42.4222 C36.9228,44.2824 34.7425,45.717 32.3741,46.6786 Z M24.0296,21.5974 L24.0296,28.849 L24.0296,48.1605 C23.9512,48.1605 23.8727,48.1605 23.7943,48.1447 C23.7786,48.1447 23.7629,48.1447 23.7473,48.1447 C23.5904,48.1289 23.4492,48.1289 23.2924,48.1132 C23.2767,48.1132 23.2453,48.1132 23.2297,48.1132 C23.0885,48.0974 22.9473,48.0816 22.7905,48.0816 C22.7748,48.0816 22.7434,48.0816 22.7277,48.0816 C22.5866,48.0659 22.4297,48.0501 22.2885,48.0344 C22.2729,48.0344 22.2572,48.0344 22.2415,48.0344 C22.0846,48.0186 21.9278,47.9871 21.7866,47.9713 L21.7709,47.9713 C12.156,46.4579 4.79965,38.1028 4.79965,28.0608 C4.79965,27.9347 4.79965,27.8244 4.79965,27.6982 C4.79965,27.6352 4.79965,27.5721 4.79965,27.5091 C4.79965,27.3672 4.81533,27.2253 4.81533,27.0834 C4.81533,27.0519 4.81533,27.0204 4.81533,27.0046 C4.83102,26.7208 4.8467,26.4371 4.87807,26.1533 C4.87807,26.1218 4.87807,26.0903 4.89376,26.0587 C5.33294,21.5186 7.29358,17.2937 10.509,13.9832 C14.1166,10.27855 18.9006,8.15035 24.0296,7.94542 L24.0296,21.5974 Z" id="path15_fill"></path>
                    <path d="M40.28201,35.54896 C41.37997,35.54896 42.27402,34.65039 42.27402,33.54688 C42.27402,32.443373 41.37997,31.544801 40.28201,31.544801 C39.18405,31.544801 38.290001,32.443373 38.290001,33.54688 C38.290001,34.65039 39.18405,35.54896 40.28201,35.54896 Z M40.28201,33.97252 C40.04673,33.97252 39.85851,33.78335 39.85851,33.54688 C39.85851,33.31042 40.04673,33.12124 40.28201,33.12124 C40.51728,33.12124 40.70551,33.31042 40.70551,33.54688 C40.70551,33.78335 40.5016,33.97252 40.28201,33.97252 Z" id="path16_fill"></path>
                    <path d="M38.74372,13.58906 C38.79077,13.58906 38.85351,13.58906 38.90057,13.58906 C39.43386,13.54177 39.90441,13.3053 40.24949,12.89543 C40.59456,12.48555 40.7671,11.98109 40.72004,11.4451 C40.64162,10.341592 39.68482,9.5218417 38.58686,9.61642829 C37.488906,9.6952504 36.6732793,10.65688 36.76739,11.76039 C36.861501,12.80084 37.724183,13.58906 38.74372,13.58906 Z M38.3359,11.63428 C38.32022,11.52392 38.36727,11.41357 38.43001,11.33475 C38.50844,11.25593 38.60255,11.19287 38.71235,11.19287 C38.72803,11.19287 38.72803,11.19287 38.74372,11.19287 C38.83783,11.19287 38.93194,11.2244 39.01036,11.28746 C39.08879,11.36628 39.15153,11.46087 39.15153,11.57122 C39.16721,11.68157 39.12016,11.79192 39.05742,11.87074 C38.97899,11.94956 38.88488,12.01262 38.77509,12.01262 C38.66529,12.02839 38.55549,11.98109 38.47707,11.91803 C38.39864,11.83921 38.35159,11.74463 38.3359,11.63428 Z" id="path17_fill"></path>
                    <path d="M18.88647,25.39661 C20.36087,25.39661 21.55294,24.19851 21.55294,22.71665 C21.55294,21.2348 20.36087,20.0366998 18.88647,20.0366998 C17.41207,20.0366998 16.2200002,21.2348 16.2200002,22.71665 C16.2200002,24.19851 17.41207,25.39661 18.88647,25.39661 Z M18.88647,21.62891 C19.4825,21.62891 19.98443,22.1176 19.98443,22.73242 C19.98443,23.33146 19.49819,23.83593 18.88647,23.83593 C18.29044,23.83593 17.78851,23.34723 17.78851,22.73242 C17.78851,22.1176 18.27475,21.62891 18.88647,21.62891 Z" id="path18_fill"></path>
                    <polygon id="path19_fill" points="22.5868 27.2568 5.49 27.2568 5.49 28.83324 22.5868 28.83324"></polygon>
                </g>
            </g>
        </g>
    </g>
</svg>