<svg id="efe4c642-f84e-4771-b13c-9c25e8f2527f" data-name="Layer 1" xmlns="http://www.w3.org/2000/svg" viewBox="0 0 65 50.14"><defs><style>.\33 531737f-a9b0-441d-ad4e-3816c0498972{fill:#fff;}</style></defs><title>rolls</title><g id="141d419a-ff1d-4ff9-a53c-82f92e2e5757" data-name="Canvas"><g id="b9056f6c-abec-45b1-a14e-4ddf097332a3" data-name="rolls"><g id="dacd2773-cc15-4803-99ea-36e9f6bc7613" data-name="Vector"><path id="f5db2c00-b60c-4dae-97ec-0b64edfd25e6" data-name="path0 fill" class="3531737f-a9b0-441d-ad4e-3816c0498972" d="M11.76,17.27c-.53-1,.11-2-.42-3.15a3.44,3.44,0,0,0-1.55-1.59c-1.48.55-2.5,1.59-2.5,2.78,0,1.76,2.18,3.21,4.9,3.21a6.35,6.35,0,0,0,.91-.06A3,3,0,0,1,11.76,17.27Z" transform="translate(0 0)"/></g><g id="3939bb36-ad6b-4e4b-bcd5-f370f942b018" data-name="Vector"><path id="d9d6c8f2-d3d6-43ca-bdaa-dd47692c0728" data-name="path1 fill" class="3531737f-a9b0-441d-ad4e-3816c0498972" d="M17.1,15.31c0-1.76-2.18-3.21-4.9-3.21-.25,0-.51,0-.74,0A3.67,3.67,0,0,1,13,13.8c.38,1-.15,2.17.23,3.15a3.08,3.08,0,0,0,1.17,1.23C16,17.65,17.1,16.57,17.1,15.31Z" transform="translate(0 0)"/></g><g id="27cbe6a6-de40-4639-b980-c86a634ee9ae" data-name="Vector"><path id="8083e384-201e-4437-8077-dfdfcfd68d22" data-name="path2 fill" class="3531737f-a9b0-441d-ad4e-3816c0498972" d="M19.63,27.93a2,2,0,0,0,.3-1,2.43,2.43,0,0,0-1.82.21c-1.14.66-1.55,2.25-1.14,4a3.06,3.06,0,0,1,.53-1.57C18.06,28.7,19.1,28.74,19.63,27.93Z" transform="translate(0 0)"/></g><g id="49489e82-3925-4aa2-89b8-b06a7c5ff826" data-name="Vector"><path id="fa7f8887-39ff-4f5d-977a-06d47fe9d783" data-name="path3 fill" class="3531737f-a9b0-441d-ad4e-3816c0498972" d="M18.55,31.14c.68-1,1.91-1,2.52-1.91a3,3,0,0,0,.38-1.55,4.42,4.42,0,0,0-1.17-.62,2.43,2.43,0,0,1-.4,1.23c-.51.68-1.59.77-2.12,1.42A3.32,3.32,0,0,0,17.25,32a6.68,6.68,0,0,0,.38.79,3.5,3.5,0,0,0,.3.47A3.59,3.59,0,0,1,18.55,31.14Z" transform="translate(0 0)"/></g><g id="528d83c1-7b89-431b-9b2b-331788ae7979" data-name="Vector"><path id="631cc221-38cd-43cc-9150-29608a172e52" data-name="path4 fill" class="3531737f-a9b0-441d-ad4e-3816c0498972" d="M23.48,32.38a2.31,2.31,0,0,0,.32-1.25,8.12,8.12,0,0,0-.59-1.42l-.06-.11a3.5,3.5,0,0,1-.49,1.59c-.59.77-1.8.87-2.42,1.62A3.47,3.47,0,0,0,19.65,35a3.93,3.93,0,0,0,1.19.53A3.06,3.06,0,0,1,21.36,34C21.94,33.14,23,33.18,23.48,32.38Z" transform="translate(0 0)"/></g><g id="bf75efc8-4c1f-44d0-9316-27580d7cb4ed" data-name="Vector"><path id="4d203257-d767-4fd3-b52e-e488521a1647" data-name="path5 fill" class="3531737f-a9b0-441d-ad4e-3816c0498972" d="M19.94,32.59c.66-1,1.82-.91,2.42-1.83A3.11,3.11,0,0,0,22.72,29a6,6,0,0,0-.85-.94,3,3,0,0,1-.49,1.64c-.61.79-1.87.89-2.5,1.68a3.63,3.63,0,0,0-.64,2.36,6.62,6.62,0,0,0,1.1,1.08A3.31,3.31,0,0,1,19.94,32.59Z" transform="translate(0 0)"/></g><g id="4873f58c-0ed7-4f57-99f3-0f36a6c3d771" data-name="Vector"><path id="7f4033f7-63d4-46dc-9693-03a49bf680fb" data-name="path6 fill" class="3531737f-a9b0-441d-ad4e-3816c0498972" d="M23.72,32.72c-.51.66-1.57.77-2.1,1.42a2.7,2.7,0,0,0-.51,1.47,2.46,2.46,0,0,0,1.61-.26A3.13,3.13,0,0,0,24,32.16,1.69,1.69,0,0,1,23.72,32.72Z" transform="translate(0 0)"/></g><g id="363e4f94-02ec-4861-90cc-32f279aeccd4" data-name="Vector"><path id="be160883-b09c-473a-bd0f-31190f58b217" data-name="path7 fill" class="3531737f-a9b0-441d-ad4e-3816c0498972" d="M65,29.47h0c0-.81,0-1.74-.06-2.76,0-5.67-3.62-7.46-4.11-7.69-.32-.19-4.28-2.51-6.15-3.57a4,4,0,0,0-4,.15A7,7,0,0,0,47,11.17c-.32-.19-4.28-2.51-6.15-3.57a3.82,3.82,0,0,0-3.41-.15V7.28l0-.19A3.13,3.13,0,0,0,35.8,4.43L33.49,3.11c-1.06-.62-2.25-1.3-3.62-2.06a8.91,8.91,0,0,0-8.52.06c-.72.45-1.57.91-2.44,1.4-1.12.64-2.29,1.3-3.41,2a3.6,3.6,0,0,0-1.27,1.32,3.41,3.41,0,0,0-.42,1.89v.11c0,.09,0,.28,0,.53a9,9,0,0,0-6,.94c-.72.45-1.57.91-2.44,1.4C4.2,11.34,3,12,1.91,12.7A3.6,3.6,0,0,0,.64,14a3.41,3.41,0,0,0-.42,1.89V16c0,.72-.21,7.23-.21,10s1.82,3.72,5.09,5.44l.15-.28-.15.28c.72.38,1.53.81,2.42,1.3a9,9,0,0,0,6.06,1.23,8.92,8.92,0,0,0,3.65,4.44c.74.43,1.55.91,2.42,1.45,1.1.66,2.25,1.36,3.41,2a3.52,3.52,0,0,0,1.76.47,3.35,3.35,0,0,0,1.84-.55l.08,0,.47-.26A8.81,8.81,0,0,0,31,46.23c.74.42,1.55.91,2.42,1.45,1.1.66,2.25,1.36,3.41,2a3.52,3.52,0,0,0,1.76.47,3.35,3.35,0,0,0,1.84-.55l.08,0c.64-.34,6.38-3.36,8.77-4.72a4,4,0,0,0,2.12-3,2.82,2.82,0,0,0,.59.06,3.35,3.35,0,0,0,1.84-.55l.08,0c.64-.34,6.38-3.36,8.77-4.72S65.07,33.16,65,29.47ZM36.88,9.23l.06,0s1.76-1.38,3.29-.49l6.17,3.59.08,0a6,6,0,0,1,3.05,4l.45-.26-8.05,4.87-.15.11a2.31,2.31,0,0,0-.61.49,8.06,8.06,0,0,0-4-5l-2.46-1.42c-1.08-.62-2.23-1.27-3.35-1.93-.19-.11-.36-.19-.55-.28ZM27.74,16v-.11A1.84,1.84,0,0,1,29.59,14a2.24,2.24,0,0,1,1.1.32c.53.3,1.06.6,1.57.91s.87.51,1.31.74l2.92,1.68a6.68,6.68,0,0,1,3.62,5.59,4.4,4.4,0,0,0-2.86.55,7,7,0,0,0-3.65-4.42c-.32-.17-3.94-2.27-5.87-3.4ZM15.34,6.43a2.43,2.43,0,0,1,.83-.85c.83-.51,1.7-1,2.52-1.49.32-.19.66-.38,1-.55.91-.51,1.7-1,2.35-1.36a7.58,7.58,0,0,1,7.23,0c.72.4,1.4.81,2,1.17l1.57.89c.45.26.87.49,1.25.72s.72.43,1.08.62a1.84,1.84,0,0,1,.72,2.53,2.19,2.19,0,0,1-.76.77l1.08-.64-8.05,4.87,6.4-3.87c-.34.21-.68.4-1,.62l-1.29.77-2.88,1.72a6.76,6.76,0,0,1-7.44,0l-2.61-1.47c-1.19-.64-2.46-1.32-3.52-2A1.81,1.81,0,0,1,15.34,6.43Zm11.15,9a4.15,4.15,0,0,0-2.61.32v-.3l0-.19a2.45,2.45,0,0,0-.13-.79,7.4,7.4,0,0,0,3,.17A2.84,2.84,0,0,0,26.49,15.46ZM13.23,32.7h0a7.85,7.85,0,0,1-5.07-1.13c-.91-.51-1.72-.94-2.44-1.32-3.14-1.64-4.43-2.32-4.43-4.31s.08-5.48.15-7.84l.13.08c1.17.7,2.48,1.42,4.15,2.36l1.95,1.11a8.24,8.24,0,0,0,5.68,1.15,3.41,3.41,0,0,0-.28,1.32c0,.81,0,1.7,0,2.68C13,28,13,29.38,13,31A6.11,6.11,0,0,0,13.23,32.7ZM8.29,20.45,5.72,19c-1.19-.64-2.46-1.32-3.52-2a1.83,1.83,0,0,1-.45-2.44,2.43,2.43,0,0,1,.83-.85c.83-.51,1.7-1,2.52-1.49.32-.19.66-.38,1-.55.91-.51,1.7-1,2.35-1.36a7.58,7.58,0,0,1,7.23,0c.72.4,1.4.81,2,1.17l1.57.89c.45.26.87.49,1.25.72s.72.43,1.08.62a1.84,1.84,0,0,1,.72,2.53,2.25,2.25,0,0,1-.81.81c-.51.32-1,.62-1.57.94l-1.29.76-2.88,1.72A6.83,6.83,0,0,1,8.29,20.45Zm18.46,19A1.82,1.82,0,0,1,24.84,41a2.48,2.48,0,0,1-1.14-.3c-.85-.47-1.7-1-2.52-1.49l-1-.57c-.89-.55-1.65-1-2.33-1.38A7.71,7.71,0,0,1,14.29,31c0-.83,0-1.62,0-2.34V26.83c0-.51,0-1,0-1.47V24.13a1.84,1.84,0,0,1,1.84-1.87,2.24,2.24,0,0,1,1.1.32c.53.3,1.06.6,1.57.91s.87.51,1.31.74l2.92,1.68a6.85,6.85,0,0,1,3.67,6.5v3C26.75,36.75,26.79,38.18,26.75,39.43Zm-3-14.64-2.46-1.42c-1.08-.62-2.23-1.28-3.35-1.93-.19-.11-.36-.19-.55-.28l6.08-3.68.06,0s1.76-1.38,3.29-.49L33,20.54l.08,0a6,6,0,0,1,3.05,4l.44-.25-8.05,4.87-.15.11a2.31,2.31,0,0,0-.61.49A8.09,8.09,0,0,0,23.74,24.79ZM40.52,47.3a1.82,1.82,0,0,1-1.91,1.57,2.48,2.48,0,0,1-1.14-.3c-.85-.47-1.7-1-2.52-1.49l-1-.57c-.89-.55-1.65-1-2.33-1.38a7.71,7.71,0,0,1-3.6-6.29c0-.83,0-1.62,0-2.34V34.69c0-.51,0-1,0-1.47V32a1.84,1.84,0,0,1,1.84-1.87,2.24,2.24,0,0,1,1.1.32c.53.3,1.06.6,1.57.91s.87.51,1.31.74l2.92,1.68a6.85,6.85,0,0,1,3.67,6.5v3C40.52,44.62,40.57,46,40.52,47.3Zm8.16-3.57c-1.63.94-4.79,2.61-6.89,3.72V47.3c0-1.36,0-2.87,0-4.78V40.28a8.13,8.13,0,0,0-4.3-7.63l-2.46-1.42C34,30.61,32.83,30,31.71,29.3c-.19-.11-.36-.19-.55-.28l6.08-3.68.06,0s1.76-1.38,3.29-.49l6.17,3.59.08,0c.13.06,3.35,1.47,3.39,6.52,0,1,0,2,.06,2.78C50.38,41.28,50.42,42.73,48.68,43.72ZM53.94,39A1.82,1.82,0,0,1,52,40.62a3.45,3.45,0,0,1-.47,0c0-.83,0-1.79,0-2.87h0c0-.81,0-1.72-.06-2.76,0-5.67-3.62-7.46-4.11-7.69-.32-.19-3.92-2.3-5.87-3.42h0v-.11a1.84,1.84,0,0,1,1.84-1.87,2.24,2.24,0,0,1,1.1.32c.53.3,1.06.6,1.57.91s.87.51,1.31.74l2.92,1.68A6.85,6.85,0,0,1,53.94,32v3C54,36.37,54,37.8,53.94,39Zm8.16-3.57c-1.63.94-4.79,2.61-6.89,3.72V39c0-1.36,0-2.87,0-4.78V32a8.13,8.13,0,0,0-4.3-7.63L48.47,23c-1.08-.62-2.23-1.28-3.35-1.93-.19-.11-.36-.19-.55-.28l6.08-3.68.06,0s1.76-1.38,3.29-.49l6.17,3.59.08,0c.13.06,3.35,1.47,3.39,6.52,0,1,0,2,.06,2.78C63.8,33,63.84,34.48,62.1,35.48Z" transform="translate(0 0)"/></g><g id="4e66fe5d-725a-41ae-aa62-c6fe4e850828" data-name="Vector"><path id="ef94e001-0db7-40eb-9759-fda7a5a28f73" data-name="path8 fill" class="3531737f-a9b0-441d-ad4e-3816c0498972" d="M30.46,8.32a2.3,2.3,0,0,0,.23-1c0-1.76-2.12-3.21-4.73-3.21a5.87,5.87,0,0,0-1.08.09c.34.11.7.26,1.06.4A8.69,8.69,0,0,1,30.46,8.32Z" transform="translate(0 0)"/></g><g id="1f106353-8170-4740-ad3f-6268f99458c5" data-name="Vector"><path id="166f15cc-c2f2-4453-b77d-e4c03410e768" data-name="path9 fill" class="3531737f-a9b0-441d-ad4e-3816c0498972" d="M26,10.53a5.15,5.15,0,0,0,.57,0c-.19-2.42-1.91-4.61-3.12-5.84,0,0,0,0,0,0a3.14,3.14,0,0,0-2.12,2.68C21.24,9.09,23.36,10.53,26,10.53Z" transform="translate(0 0)"/></g><g id="3210a7d9-5cbe-4d66-b2e2-85738c7ca58c" data-name="Vector"><path id="bb2e2d56-79a3-4294-a360-2fac35fb913a" data-name="path10 fill" class="3531737f-a9b0-441d-ad4e-3816c0498972" d="M25,5.15l.36.45a9.42,9.42,0,0,1,2,4.78,5,5,0,0,0,2.52-1.28C29,7,26.79,5.79,25,5.15Z" transform="translate(0 0)"/></g><g id="af91b991-7736-4cab-b07d-9400b1c8973a" data-name="Vector"><path id="23543c77-019a-4dc7-a0f5-76bef36686db" data-name="path11 fill" class="3531737f-a9b0-441d-ad4e-3816c0498972" d="M30.9,40.79c.91,2,2.69,3.17,4.3,3l-4-7.95A4.83,4.83,0,0,0,30.9,40.79Z" transform="translate(0 0)"/></g><g id="82e8be7c-3d5e-406c-8cd9-898b8f8c3937" data-name="Vector"><path id="ac790d15-5cac-453a-9b3d-f7f5a203e248" data-name="path12 fill" class="3531737f-a9b0-441d-ad4e-3816c0498972" d="M36.81,36.8c-1.19-1.66-3.07-2.44-4.6-1.74l-.36.19,1.93,3.83Z" transform="translate(0 0)"/></g><g id="87d40e48-b232-4314-b4ef-54a6db8f5d48" data-name="Vector"><path id="216417b7-65d3-47fc-adcb-3e80d6b27946" data-name="path13 fill" class="3531737f-a9b0-441d-ad4e-3816c0498972" d="M37.26,37.54l-3.07,2.32,1.87,3.7a0,0,0,0,0,0,0c1.8-.83,2.37-3.38,1.31-5.74Z" transform="translate(0 0)"/></g></g></g></svg>