<?xml version="1.0" encoding="UTF-8"?>
<svg width="50px" height="44px" viewBox="0 0 50 44" version="1.1" xmlns="http://www.w3.org/2000/svg" xmlns:xlink="http://www.w3.org/1999/xlink">
    <!-- Generator: Sketch 49.1 (51147) - http://www.bohemiancoding.com/sketch -->
    <title>vegetables</title>
    <desc>Created with Sketch.</desc>
    <defs></defs>
    <g id="Page-1" stroke="none" stroke-width="1" fill="none" fill-rule="evenodd">
        <g id="LK-reg-3" transform="translate(-100.000000, -1226.000000)" fill="#FFFFFF" fill-rule="nonzero">
            <g id="icon-menu" transform="translate(0.000000, 198.000000)">
                <g id="vegetables" transform="translate(100.000000, 1028.000000)">
                    <g id="Vector" transform="translate(34.000000, 8.000000)">
                        <g id="path0_fill-link" transform="translate(0.560000, 0.561000)">
                            <path d="M0.829527,1.6704 C1.23854,1.6704 1.60859,1.35429 1.64755,0.939391 C1.72546,0.247898 0.965863,-0.246026 0.381562,0.129356 C0.0699347,0.326926 -0.0663999,0.702307 0.0309837,1.05793 C0.128367,1.41356 0.459469,1.6704 0.829527,1.6704 Z" id="path0_fill"></path>
                        </g>
                    </g>
                    <g id="Vector">
                        <g id="path1_fill-link">
                            <path d="M50,18.0945 C50,16.1385 48.8119,14.2418 46.5721,12.6415 L45.6762,8.8482 C45.5983,8.53209 45.3451,8.27525 45.014,8.21598 C44.7023,8.15671 44.3712,8.295 44.1765,8.5716 L42.7936,10.5868 C42.6183,10.5078 42.4625,10.4485 42.2872,10.3695 C40.8265,7.95914 38.1971,6.39834 35.3146,6.39834 C34.0875,6.39834 32.8994,6.67493 31.8088,7.20837 C31.6724,6.43785 31.4387,5.66733 31.0881,4.93632 L30.0753,2.80257 C29.8806,2.38767 29.3742,2.20986 28.9652,2.40743 L26.8811,3.43479 C26.8617,3.43479 26.8422,3.45455 26.8422,3.45455 C26.18,2.58524 25.3425,1.85424 24.3881,1.30104 L22.3625,0.115625 C21.973,-0.121458 21.4666,0.0168406 21.2329,0.431737 L20.0643,2.48646 C19.5774,3.35577 19.2463,4.28434 19.071,5.25243 C17.6102,5.64757 16.3442,6.55639 15.4678,7.82084 C14.2797,7.16886 12.9358,6.79348 11.4945,6.79348 C7.75501,6.79348 4.58031,9.30261 3.54805,12.7601 C-0.0161928,15.0321 -0.113577,17.4425 0.0422369,18.4896 C0.13962,25.1082 2.73002,31.3316 7.346,36.014 C12.0594,40.7952 18.3309,43.4426 25.0114,43.4426 C28.5561,43.4426 31.9646,42.7116 35.1003,41.3089 C35.7625,41.0718 38.8788,39.8073 42.2093,36.5079 C42.5404,36.1721 43.0663,35.5991 43.5337,35.0854 C44.0401,34.5125 45.3451,32.8529 45.7346,32.2602 C46.2994,31.4106 46.8058,30.5216 47.2733,29.593 C47.3512,29.4547 47.4096,29.3164 47.4875,29.1781 C49.1235,25.7602 50,21.9866 50,18.1537 C50,18.1142 50,18.1142 50,18.0945 Z M43.748,12.1279 C43.748,12.1081 43.7675,12.1081 43.7675,12.0883 L44.4881,11.0412 L46.8837,21.0975 L44.8776,18.5291 L44.8581,18.5093 L41.9366,14.7555 L43.748,12.1279 Z M45.6177,22.1841 C43.6506,23.6066 40.7486,24.8118 37.2622,25.6614 L39.2878,14.064 L44.7218,21.0382 C44.7218,21.058 44.7413,21.058 44.7608,21.0778 L45.6177,22.1841 Z M31.9256,9.04577 C32.9384,8.41355 34.107,8.07768 35.3146,8.07768 C38.0997,8.07768 40.5733,9.89532 41.4692,12.523 L40.8654,13.3923 L39.4436,11.5549 C39.2489,11.2981 38.8983,11.1795 38.5866,11.2585 C38.3724,11.3178 38.1971,11.4561 38.0803,11.6339 L33.1526,19.7343 C32.6463,19.3589 32.0619,19.1613 31.4582,19.1218 C31.5166,18.7859 31.5361,18.4303 31.4971,18.0747 C31.4387,17.6203 31.0297,17.2844 30.5622,17.3437 C30.1143,17.403 29.7832,17.8179 29.8416,18.292 C29.9,18.7859 29.7442,19.2601 29.3936,19.596 C28.7899,20.2084 27.816,20.2084 27.2122,19.596 C26.9201,19.2996 26.7643,18.9045 26.7643,18.4896 C26.7643,18.0747 26.9201,17.6796 27.2122,17.3832 C27.6602,16.9288 28.3029,16.8102 28.8872,17.0473 C29.3157,17.2251 29.8027,17.0078 29.9585,16.5929 C30.1338,16.1583 29.9195,15.6643 29.5105,15.5063 C29.2963,15.4075 29.0625,15.3482 28.8288,15.3087 C30.7181,13.7282 31.8088,11.4364 31.9256,9.04577 Z M26.0436,27.0246 C25.6931,27.0246 25.362,27.0246 25.0114,27.0246 C24.8361,27.0246 24.6803,27.0246 24.505,27.0246 L24.505,25.6219 C24.9724,25.938 25.5178,26.1158 26.0826,26.1553 C26.0436,26.4516 26.0242,26.748 26.0436,27.0246 Z M21.8951,22.2829 C22.0899,22.6386 22.4989,22.7768 22.8495,22.6781 L22.8495,27.0048 C20.2006,26.9061 17.6492,26.6295 15.2341,26.1948 L15.2341,22.6978 C16.2079,23.2115 17.5323,23.5276 19.0515,23.5276 C19.5579,23.5276 20.0643,23.4881 20.5512,23.4288 C20.9992,23.3696 21.3108,22.9349 21.2524,22.4805 C21.1939,22.0261 20.7655,21.71 20.3175,21.7692 C19.9085,21.8285 19.4995,21.868 19.071,21.868 C16.7143,21.868 15.2535,20.9592 15.2535,20.4653 C15.2535,19.9714 16.6948,19.0625 19.071,19.0625 C21.4277,19.0625 22.8884,19.9714 22.8884,20.4653 C22.8884,20.6629 22.6352,20.9395 22.2262,21.1765 C21.8172,21.3741 21.6614,21.8878 21.8951,22.2829 Z M18.4867,15.0124 C18.6425,14.8543 18.8178,14.7358 19.032,14.6567 C19.5969,14.4394 20.2396,14.5777 20.6681,15.0124 C21.2719,15.6248 21.2719,16.6127 20.6681,17.2251 C20.5902,17.3042 20.4928,17.3832 20.3954,17.4425 C19.9669,17.3832 19.5189,17.3634 19.0515,17.3634 C18.9152,17.3634 18.7788,17.3634 18.6425,17.3634 C18.5841,17.3239 18.5451,17.2844 18.4867,17.2251 C17.8829,16.6127 17.8829,15.6248 18.4867,15.0124 Z M22.5184,18.0154 C23.0442,17.8771 23.6285,17.9957 24.0375,18.4106 C24.4271,18.8057 24.5634,19.3589 24.4466,19.8726 C24.1934,19.1021 23.5117,18.4698 22.5184,18.0154 Z M23.8817,16.178 C23.278,15.5656 23.278,14.5777 23.8817,13.9652 C24.1739,13.6689 24.5829,13.5108 24.9724,13.5108 C25.362,13.5108 25.771,13.6689 26.0631,13.9652 C26.3553,14.2616 26.5111,14.6567 26.5111,15.0716 C26.5111,15.4865 26.3553,15.8817 26.0631,16.178 C25.4593,16.7905 24.4855,16.7905 23.8817,16.178 Z M25.1867,24.0413 C24.8945,23.7449 24.7387,23.3498 24.7387,22.9349 C24.7387,22.52 24.8945,22.1249 25.1867,21.8285 C25.4788,21.5322 25.8878,21.3741 26.2774,21.3741 C26.6669,21.3741 27.0759,21.5322 27.3681,21.8285 C27.6602,22.1249 27.816,22.52 27.816,22.9349 C27.816,23.3498 27.6602,23.7449 27.3681,24.0413 C27.0759,24.3376 26.6864,24.4957 26.2774,24.4957 C25.8684,24.4957 25.4788,24.3376 25.1867,24.0413 Z M28.1471,25.6219 C28.7509,25.0094 29.7247,25.0094 30.3285,25.6219 C30.6207,25.9182 30.796,26.3331 30.7765,26.748 C30.0558,26.827 29.3352,26.8863 28.634,26.9258 C28.3419,26.9456 28.0303,26.9653 27.6992,26.9851 C27.6407,26.4912 27.7966,25.9972 28.1471,25.6219 Z M30.1922,23.4683 C29.9,23.172 29.7442,22.7768 29.7442,22.362 C29.7442,21.9471 29.9,21.5519 30.1922,21.2556 C30.4843,20.9592 30.8933,20.8012 31.2829,20.8012 C31.6724,20.8012 32.0814,20.9592 32.3736,21.2556 C32.6657,21.5519 32.8215,21.9471 32.8215,22.362 C32.8215,22.7768 32.6657,23.172 32.3736,23.4683 C32.0814,23.7647 31.6919,23.9228 31.2829,23.9228 C30.8739,23.9425 30.4843,23.7647 30.1922,23.4683 Z M33.5422,24.6735 C34.146,24.0611 34.4771,23.251 34.4771,22.3817 C34.4771,21.9668 34.3992,21.5519 34.2433,21.1568 L37.2038,16.2768 L35.4899,26.0565 C34.4965,26.2541 33.4643,26.4319 32.4125,26.5702 C32.3931,26.1948 32.3151,25.8392 32.1788,25.5033 C32.7047,25.3255 33.1721,25.0489 33.5422,24.6735 Z M27.6018,4.95608 L28.9652,4.28434 L29.6274,5.66733 C30.9713,8.49257 30.2311,11.871 27.9524,13.8665 C27.7966,13.4713 27.5628,13.0959 27.2512,12.7798 C27.2317,12.7601 27.2317,12.7601 27.2122,12.7403 C27.2707,12.3649 27.3096,11.9896 27.3096,11.6142 C27.3096,9.73726 26.5306,8.03816 25.2841,6.83299 C25.8878,6.04271 26.6864,5.39073 27.6018,4.95608 Z M21.4861,3.33601 L22.2457,2.01229 L23.5506,2.78281 C24.2713,3.19771 24.8945,3.73115 25.4204,4.38313 C24.875,4.81778 24.3686,5.3117 23.9402,5.8649 C23.0053,5.35122 21.9535,5.05486 20.8239,5.05486 C20.9602,4.4424 21.1939,3.86945 21.4861,3.33601 Z M20.7849,6.69469 C23.4532,6.69469 25.6346,8.90747 25.6346,11.6142 C25.6346,11.713 25.6346,11.8117 25.6346,11.8908 C24.6024,11.6734 23.5117,11.9698 22.7131,12.7798 C22.382,13.1157 22.1288,13.5306 21.973,13.9652 C21.9341,13.9257 21.8951,13.8665 21.8367,13.827 C21.2134,13.1947 20.3564,12.8589 19.48,12.8786 C19.0126,11.2585 18.0777,9.83605 16.8312,8.76917 C17.7466,7.48497 19.1878,6.69469 20.7849,6.69469 Z M7.38496,10.0929 C7.42391,10.0534 7.46286,10.0139 7.50182,9.97435 C8.04716,9.53969 8.6899,9.18407 9.3521,8.94698 C9.39106,8.94698 9.43001,8.92723 9.44949,8.92723 C10.1117,8.7099 10.8129,8.59136 11.514,8.59136 C14.4745,8.59136 17.0065,10.5868 17.7855,13.4318 C17.6102,13.5504 17.4544,13.6887 17.3181,13.827 C17.0454,14.1035 16.8312,14.3999 16.6948,14.7358 C15.682,14.5184 14.007,14.4592 12.5268,15.9805 C12.1957,16.3163 12.1957,16.8498 12.5268,17.1659 C12.6826,17.3239 12.8969,17.403 13.1111,17.403 C13.3254,17.403 13.5396,17.3239 13.6954,17.1659 C14.6692,16.178 15.7794,16.2373 16.4027,16.3954 C16.4416,16.83 16.5585,17.2449 16.7533,17.64 C14.864,18.1142 13.598,19.1613 13.598,20.4455 L13.598,21.4531 C13.0527,21.6309 12.5073,21.7495 11.923,21.789 C11.4166,19.9516 9.74164,18.5884 7.81344,18.5884 C7.24862,18.5884 6.6838,18.7069 6.15792,18.9242 C5.41781,17.8376 5.0088,16.5337 5.0088,15.1902 C5.0088,13.2145 5.86577,11.3573 7.38496,10.0929 Z M13.5786,23.1917 L13.5786,25.8589 C12.819,25.6811 12.0594,25.5033 11.3582,25.3057 C11.7283,24.7525 11.962,24.1203 12.0399,23.4486 C12.5658,23.4091 13.0722,23.33 13.5786,23.1917 Z M10.4038,22.8954 C10.4038,23.6066 10.1312,24.2586 9.64426,24.7525 C7.91083,24.1598 6.41112,23.4683 5.18409,22.6978 C5.24252,21.868 5.67101,21.137 6.35269,20.6629 C6.78118,20.3863 7.2681,20.2282 7.79397,20.2282 C9.13786,20.2282 10.287,21.2951 10.3844,22.6583 C10.4038,22.7571 10.4038,22.8164 10.4038,22.8954 Z M3.19746,15.2297 C3.19746,16.9881 3.74281,18.6279 4.65822,19.9714 C4.22973,20.4455 3.9181,21.0185 3.72334,21.6309 C2.78845,20.8407 1.95095,19.8133 1.75619,18.6476 C1.61985,17.0868 2.43787,15.9409 3.19746,15.2297 Z M47.2733,25.2267 C46.4747,27.8149 45.2282,30.2252 43.5727,32.438 C42.2093,34.2161 40.1253,36.3894 37.1843,38.2268 C36.1131,38.8985 33.5032,40.2025 31.5945,40.8149 C29.491,41.4472 27.2707,41.7633 25.0114,41.7633 C13.598,41.7633 4.07392,33.4061 2.08729,22.4015 C2.61316,22.9151 3.21694,23.4091 3.9181,23.8832 C5.43729,24.8908 7.346,25.7799 9.58583,26.5109 C11.0271,26.9851 12.6047,27.3802 14.2602,27.7161 C17.2012,28.3088 20.3759,28.6447 23.6675,28.7039 C24.096,28.7039 24.5439,28.7237 25.0114,28.7237 C25.732,28.7237 26.4332,28.7039 27.1343,28.6842 C27.6992,28.6644 28.225,28.6447 28.712,28.6052 C29.6468,28.5459 30.6012,28.4669 31.5556,28.3681 C33.2306,28.1903 34.8471,27.9137 36.3858,27.5975 C41.1576,26.5899 44.9166,24.9896 47.2927,22.9942 C47.5265,22.7966 47.7407,22.599 47.9355,22.4015 C47.7991,23.3498 47.5654,24.2981 47.2733,25.2267 Z M48.1497,19.2206 L47.2538,15.4865 C47.877,16.2373 48.3445,17.1066 48.3445,18.0945 C48.3445,18.4698 48.2666,18.8452 48.1497,19.2206 Z" id="path1_fill"></path>
                        </g>
                    </g>
                </g>
            </g>
        </g>
    </g>
</svg>