<?xml version="1.0" encoding="utf-8"?>
<!-- Generator: Adobe Illustrator 21.1.0, SVG Export Plug-In . SVG Version: 6.00 Build 0)  -->
<svg version="1.1" id="Слой_1" xmlns="http://www.w3.org/2000/svg" xmlns:xlink="http://www.w3.org/1999/xlink" x="0px" y="0px"
	 viewBox="0 0 100 100" style="enable-background:new 0 0 100 100;" xml:space="preserve">
<style type="text/css">
	.st0{fill:#FFFFFF;}
</style>
<g>
	<path class="st0" d="M48.1,31.3L48.1,31.3c0,1.3,1,2.2,2.2,2.2c23-0.2,41.7,7.3,41.8,11.5c0,1.1-2.5,3.7-12.5,6.1
		c-8.1,2-19.5,3.3-31.3,3.7c-24,0.8-40.3-5.1-40.4-9.4c0-0.5,0.2-1.1,0.7-1.7l-3.7-2.8c-1.1,1.5-1.7,3-1.6,4.6
		c0.1,3.5,3.1,6.4,7.9,8.6c8.7,4,23.4,5.8,37.5,5.3c12.2-0.4,23.7-1.8,32.2-3.8c10.9-2.6,16.2-6.2,16-10.8
		C96.6,35.4,72.2,28.9,50.4,29C49,29.1,48.1,30.1,48.1,31.3z"/>
	<path class="st0" d="M83.2,66.4L83.2,66.4c-0.4-1.2,0.1-2.4,1.3-2.9c4.9-2.1,6.7-4.2,6.7-5.6l0.9-12.6l4.6,0.3l-0.9,12.5
		c-0.1,3.7-3.3,6.9-9.5,9.6C85.1,68.2,83.7,67.6,83.2,66.4z"/>
	<path class="st0" d="M50.7,68.9L50.7,68.9c-0.1-1.3,0.9-2.3,2.2-2.4c0.8-0.1,1.7-0.1,2.5-0.2c1.3-0.1,2.4,0.8,2.5,2l0,0
		c0.1,1.3-0.8,2.5-2.1,2.6c-0.9,0.1-1.7,0.2-2.6,0.2C51.9,71.2,50.8,70.2,50.7,68.9z"/>
	<path class="st0" d="M35.3,69L35.3,69c0.1-1.3,1.1-2.2,2.4-2.2c0.7,0,1.5,0,2.3,0c1.3,0,2.3,1,2.3,2.3l0,0c0,1.3-1.1,2.3-2.4,2.3
		c-0.8,0-1.6,0-2.4,0C36.3,71.5,35.3,70.3,35.3,69z"/>
	<path class="st0" d="M10.5,66.6c-4.1-1.9-7.2-4.6-7.3-8.3V45.2h4.6v13.1c0.1,2.5,5.6,5.8,17.5,7.6c1.3,0.2,2.2,1.3,2,2.6l0,0
		c-0.2,1.3-1.3,2.2-2.6,2C20.2,69.7,14.8,68.6,10.5,66.6z"/>
	<path class="st0" d="M27.8,95.1c-12.1-5.6-21.1-18.4-24-34.4l4.6-0.8c2.6,14.4,10.6,26,21.4,31C45.6,98.2,65,93.4,67,92.2l2.8,3.7
		C65.8,97.2,45,103,27.8,95.1z"/>
	<path class="st0" d="M71.9,95.1C84,89.5,92.3,76.4,95.2,60.5l-4.6-0.8C88,74.1,80.7,85.9,69.9,90.8c-15.8,7.3-35.2,2.5-37.2,1.3
		l-2.8,3.7C33.7,98,54.7,103,71.9,95.1z"/>
	<path class="st0" d="M7.8,45.3c0.1-2.7,8.5-7,20.8-9.6c1.3-0.3,2.2-1.6,1.8-2.9l0,0c-0.3-1.2-1.5-1.9-2.7-1.7
		C14.2,33.7,3.4,38.6,3.2,44.8c-0.1,2,0.9,3.8,2.8,5.4c1.7-0.8,3.1-0.2,4.8-0.8C8.4,48.1,7.8,45.9,7.8,45.3z"/>
	<path class="st0" d="M48.2,23.9c0.9-0.7,1.2-2,0.6-3c-0.7-1.2-1.4-2.7-1.4-4c0-2.7,1.2-5.5,2.4-8.2c0.7-1.8,1.5-3.4,1.9-5.1
		c0.4-1.5-0.7-2.9-2.3-2.9l0,0c-1.1,0-2,0.8-2.3,1.8c-0.3,1.3-1,2.9-1.7,4.4c-1.3,3-2.7,6.4-2.7,10c0,2.2,1.1,4.6,2,6.2
		C45.5,24.4,47.1,24.7,48.2,23.9L48.2,23.9z"/>
	<path class="st0" d="M40.1,39L40.1,39c-1.2,0-2.2-0.9-2.3-2.1c-0.4-3.8-1.9-5.9-3.5-8c-1.7-2.3-3.4-4.6-3.4-8.4c0-3.6,1.4-7,2.7-10
		C34.3,8.9,35,7.4,35.3,6c0.3-1.1,1.2-1.8,2.3-1.8l0,0c1.5,0,2.6,1.4,2.3,2.9c-0.4,1.7-1.2,3.4-1.9,5.2c-1.2,2.7-2.4,5.5-2.4,8.2
		c0,2.3,1,3.7,2.5,5.7c1.7,2.4,3.8,5.2,4.4,10.3C42.6,37.8,41.5,39,40.1,39z"/>
	<path class="st0" d="M87.8,50.8c0.4-0.2,0.9-0.4,1.4-0.6c-0.1-0.1-0.2-0.1-0.4-0.2c-8.7-4-23.4-5.8-37.5-5.3
		c-12.2,0.4-23.7,1.8-32.2,3.8c-2.6,0.6-4.8,1.3-6.7,2c0.4,0.2,0.8,0.4,1.2,0.5c2,1,4.1,1.5,6.2,2.1c0.2,0,0.3-0.1,0.5-0.1
		c8.1-2,19.5-3.3,31.3-3.7C65,48.9,76,50.5,83.1,52.8C84.7,52.4,86.3,51.6,87.8,50.8z"/>
</g>
</svg>
