<svg id="5c8b2d10-84ac-4dd0-af57-d3386e27764a" data-name="Layer 1" xmlns="http://www.w3.org/2000/svg" viewBox="0 0 60.39 77"><defs><style>.\30 c4b7800-192c-4bf5-b337-f9f243ff10ba{fill:#fff;}</style></defs><title>wok</title><g id="7e9e50e5-a82a-4fe3-9a7d-888715c0d666" data-name="Page-1"><g id="d0d39ce4-319e-49e8-a44f-e66cbe01eaa5" data-name="LK-reg-3"><g id="c01ad5b3-78c7-4b47-83aa-5a543695864d" data-name="icon-menu"><g id="125ce0d9-a1c0-46da-a05e-5d47e83b0110" data-name="wok"><path id="a1c83f6b-c6d8-46b0-9d4d-fa5a7dadfd0a" data-name="path0 fill" class="0c4b7800-192c-4bf5-b337-f9f243ff10ba" d="M68,26.17l-7.24-3.71A4.78,4.78,0,0,0,60.93,21a6.84,6.84,0,0,0-.14-1.71c-.14-.57-.29-1-.43-1.57a4.43,4.43,0,0,0-.72-1.43,4.43,4.43,0,0,1-.72-1.43,1.33,1.33,0,0,0-1.59-.43A1.14,1.14,0,0,0,56.87,16c.29.43.43.86.72,1.28a5,5,0,0,1,.58,1.28,3.31,3.31,0,0,1,.29,1.14A3.89,3.89,0,0,1,58.61,21v.43L40.07,11.91l-3.77,1.85L34.71,2.07,32.4,1.5l-1.88,1L33.27,15l-8,4L17.77,3.64l-2.46.14L14.15,5.35,23,20.46,12,26,9.8,27.31l11,40.78L38.19,77.5l1.74,1L59.19,68.09l10.43-38.5.58-2.14Zm-9.56.29A10,10,0,0,0,59.62,25c.14-.14.14-.29.29-.43L66.72,28,49.05,36.58l.72-.29a1.53,1.53,0,0,1-.14-.71A6.3,6.3,0,0,1,49.49,34a5,5,0,0,1,.29-1.43,2.85,2.85,0,0,1,.58-1.14c.29-.29.58-.71.87-1h0c.29-.29.72-.43,1-.71a4.38,4.38,0,0,1,1.45-.57,2.72,2.72,0,0,1,1-.29c.72-.29,1.59-.57,2.32-.86A7.85,7.85,0,0,1,58.47,26.45ZM34,17.47l2.75,12.12c-.14.29-.14.43-.29.71a4.18,4.18,0,0,0-.14,1.85h.29c.58-.14,1.3-.29,1.88-.43h.14a1.78,1.78,0,0,1,.14-.86,2.85,2.85,0,0,1,.58-1.14,6.23,6.23,0,0,1,.87-1,4.4,4.4,0,0,1,1-.71c.43-.14.72-.29,1.16-.43s1-.14,1.45-.29h1.3c.14-.14.29-.43.58-.57A9.33,9.33,0,0,1,47,25.6c-.43-.14-1-.29-1.59-.43H43.69a7.37,7.37,0,0,0-1.74.29,5.24,5.24,0,0,0-1.59.57,6,6,0,0,0-1.59,1l-.29.29-.72-5a4.4,4.4,0,0,1,1-.71,5.05,5.05,0,0,1,2.9-.57,6.92,6.92,0,0,1,3.19,1,6.46,6.46,0,0,1,2.46,2.71l.58.14c.43-.29,1-.43,1.45-.71h.14a8.63,8.63,0,0,0-3.48-4,9.22,9.22,0,0,0-4.2-1.43,7.22,7.22,0,0,0-4.2.86c-.14,0-.14.14-.29.14L36.74,16l3.33-1.71,17.81,9.13c0,.14-.14.29-.14.43a6,6,0,0,1-.72,1,4.4,4.4,0,0,1-1,.71,8.46,8.46,0,0,1-2,.71c-.43.14-.72.29-1.16.43a8.94,8.94,0,0,0-1.74.71,5.2,5.2,0,0,0-1.45,1h-.14a12.93,12.93,0,0,0-1.3,1.43l-.87,1.71a8.29,8.29,0,0,0-.29,2v1.14a7.92,7.92,0,0,0,.87,1.14V36c.14.14.29.43.43.57L47.6,37c-.14-.14-.29-.43-.43-.57a15.21,15.21,0,0,0-1.3-1.57,15.34,15.34,0,0,0-1.59-1.28,10.15,10.15,0,0,0-1.88-.71,11.34,11.34,0,0,0-2.17-.29H38.33c-.72.14-1.3.29-1.88.43a7.12,7.12,0,0,0-1,.43l.43.43A9.27,9.27,0,0,1,37,35.15h.14a4.34,4.34,0,0,1,1.45-.29,4.93,4.93,0,0,1,1.45,0,5.28,5.28,0,0,1,1.59.29,4.38,4.38,0,0,1,1.45.57c.43.29.72.57,1.16.86a4.45,4.45,0,0,1,1,1.28c.14.14.14.29.29.43l-1,.57a7,7,0,0,0-1.88-1.71,7.57,7.57,0,0,0-5.07-.86A4.48,4.48,0,0,1,38,37.58a1.27,1.27,0,0,1,.14.71,6.08,6.08,0,0,1,3.33.57,6.27,6.27,0,0,1,1,.86l-1,.57a3,3,0,0,0-.87-.57,4.3,4.3,0,0,0-2.32-.57,4.78,4.78,0,0,1,.14,1.43l-.72-.71a14.21,14.21,0,0,0-.43-2.42,8.65,8.65,0,0,0-.72-1.71,5.6,5.6,0,0,0-1.16-1.43A3.87,3.87,0,0,0,34,33.44L32.25,33a8.38,8.38,0,0,0-1.88.14,8.25,8.25,0,0,0-1.74.57,5.2,5.2,0,0,0-1.45,1l-.72-.29a3.89,3.89,0,0,1,1.16-1c-.29-.14-.43-.43-.72-.57a3.38,3.38,0,0,0-2-.29,2.79,2.79,0,0,0-1.16.43l-1-.57a7.94,7.94,0,0,1,1.3-1,3.22,3.22,0,0,1,2.32-.29,4.36,4.36,0,0,1,1.16.57c.14.14.43.29.58.43s.29.43.43.57c2.75-1.85,6.81-.71,6.81-.71a6.57,6.57,0,0,1,.29-2.28,5.05,5.05,0,0,0-2-.14,6.48,6.48,0,0,0-2.17.71l-.43-1a4.66,4.66,0,0,1,2.46-.86,6.09,6.09,0,0,1,2.32.43L35.29,27l-.14-.71a8.38,8.38,0,0,0-1.88-.14,5.86,5.86,0,0,0-3.33,1.14L26.6,20.75Zm-.58,20.39-4.06-2c.14,0,.14-.14.29-.14a2.76,2.76,0,0,1,1.16-.29,4,4,0,0,1,1.3,0,3.45,3.45,0,0,1,1.16.29,3,3,0,0,1,.87.57c.29.29.43.57.72.86a3.5,3.5,0,0,1,.58,1.28c0,.14.14.43.14.57l-1-.43c0-.14-.14-.29-.14-.43l-.72-.71h-.14a3.49,3.49,0,0,0-2-.71,1.86,1.86,0,0,0-.87.14Zm-20.13-10,10.86-5.42,4.34,7.41A6.11,6.11,0,0,0,27,29.31a5,5,0,0,0-4.06.43,6.79,6.79,0,0,0-2.17,1.85Zm-.58,1.71,13.76,6.7v.29c-.14.57-.29,1.14-.43,1.85a6,6,0,0,0,0,2.28c0,.71.14,1.28.14,1.85a8.64,8.64,0,0,1,.14,1.85,3.89,3.89,0,0,1-.14,1.28,3,3,0,0,1-.58.86,3.65,3.65,0,0,1-1,.57,5.22,5.22,0,0,1-1.45.29,4.07,4.07,0,0,1-1.3-.14,4.28,4.28,0,0,0-1.3-.29c-.43-.14-1.16-.43-2-.71h-.14a1.14,1.14,0,0,0-1.16.29ZM57.31,66.52,39.93,75.93,22.55,66.52,17.62,48.27h.14c.43.14.87.29,2,.71.43.14,1,.29,1.45.43a7.77,7.77,0,0,0,1.88.14,5.89,5.89,0,0,0,2.17-.43,5,5,0,0,0,1.74-1,4.51,4.51,0,0,0,1.16-1.71,8.23,8.23,0,0,0,.29-1.85c0-.71-.14-1.43-.14-2.14a6.84,6.84,0,0,1-.14-1.71v-2a4.11,4.11,0,0,1,.29-1.28L39.93,43,67.15,29.73Z" transform="translate(-9.8 -1.5)"/><path id="d1acaade-3568-4309-8a80-c2313416fc49" data-name="path2 fill" class="0c4b7800-192c-4bf5-b337-f9f243ff10ba" d="M44.12,31.35c.3.14.75.27,1.05.41.45.27,1.05.54,1.51.81v-.68a2.1,2.1,0,0,1,.15-.95,2.33,2.33,0,0,1,.3-.95,3.92,3.92,0,0,1,.6-1.09c.3-.27.6-.68.9-.95a8.34,8.34,0,0,1,1.21-.81,5.66,5.66,0,0,1,1.36-.54h.15c.15,0,.3-.14.45-.14a8.09,8.09,0,0,1,2-.68c.45-.14.75-.27,1.21-.41S56,25.11,56.47,25a5.81,5.81,0,0,0-1.66-.41,5.5,5.5,0,0,0-2.11,0,6.63,6.63,0,0,0-2.26.41,4.92,4.92,0,0,0-2,.81,6.71,6.71,0,0,0-1.66,1.09,9.15,9.15,0,0,0-1.21,1.22,6.11,6.11,0,0,0-.75,1.36c-.15.41-.3.95-.45,1.36C44.12,30.94,44.12,31.08,44.12,31.35Z" transform="translate(-9.8 -1.5)"/><path id="8a572b90-3934-474c-a175-059091d04e61" data-name="path5 fill" class="0c4b7800-192c-4bf5-b337-f9f243ff10ba" d="M54.76,30.38a5.69,5.69,0,0,0-2.35,1.76A6.3,6.3,0,0,0,51,36.62l2.5-1.08a4.27,4.27,0,0,1,.94-2,5.23,5.23,0,0,1,1.41-1.08,2.45,2.45,0,0,1,1.72-.27,4,4,0,0,1,2,.68L62,31.74A6.1,6.1,0,0,0,57.73,30,4.46,4.46,0,0,0,54.76,30.38Z" transform="translate(-9.8 -1.5)"/></g></g></g></g></svg>