<?xml version="1.0" encoding="utf-8"?>
<!-- Generator: Adobe Illustrator 21.1.0, SVG Export Plug-In . SVG Version: 6.00 Build 0)  -->
<svg version="1.1" id="Слой_1" xmlns="http://www.w3.org/2000/svg" xmlns:xlink="http://www.w3.org/1999/xlink" x="0px" y="0px"
	 viewBox="0 0 96 79.8" style="enable-background:new 0 0 96 79.8;" xml:space="preserve">
<style type="text/css">
	.st0{fill:#FFFFFF;}
</style>
<title>Ресурс 1</title>
<g id="Слой_2">
	<g id="Режим_изоляции">
		<path class="st0" d="M44.2,79.8l-1.3-5.6l-2.9-12l-1.5-6.3L28,63l-10.1,7l2-8.9l2-9l-10-2.3l-5.1-1.2l-6-1.4L13.7,39l3-2l-3.2-2.2
			L9.3,32L0,25.7l2.6-0.3l5.8-0.6l3.7-0.4l10.7-1.1l-4.7-7.5l-4.6-7.3L34.7,17l4.1-13L50,15.4L62.5,0l1.9,18.3l18.4-5.7l-2.3,6.2
			L78,25.6l18,6.8l-17.9,8.2l6.9,7.3l8,8.5L80,55l-10.8-1.3l2.3,8.3l2.8,10.3l-2.2-1.5c-2-1.4-4-2.8-5.9-4.2l-3.1-2.2l-9.9-7.1
			l-7,17.2L44.2,79.8z M39.7,52.8l2.2,9l2.8,11.8l7.8-19.2l11.9,8.5l3.1,2.2l3.7,2.7l-1.4-5.2l-3-11L80.3,53l7.8,0.9l-4.5-4.8
			L74.9,40l16.2-7.4l-4.7-1.8l-10.8-4.1l3.2-8.6l1-2.6l-16.9,5.2l-1.8-16l-11,13.5L39.6,7.5l-3.7,12l-17.7-7l1.5,2.4L26,25
			l-13.8,1.4l-3.7,0.4l-3.2,0.3l9.2,6.3l5.5,3.7l-5.3,3.5l-4,2.6l-5,3.3l1.6,0.4l5,1.2l11.8,2.7l-2.4,10.8l-0.9,4.2l6.1-4.2
			L39.7,52.8z"/>
		<path class="st0" d="M33.5,36l3.8-6.1h2.5l-5,7.9l5.1,8h-2.5l-3.9-6.2l-3.9,6.1h-2.5l5.1-8l-5-7.9h2.4L33.5,36z"/>
		<path class="st0" d="M52.3,29.9h2.1v15.8h-2.1V33.5l-7.8,12.2h-2.1V29.9h2.1v12.2L52.3,29.9z"/>
		<path class="st0" d="M68.9,31.6h-5.1v14.1h-2.1V31.6h-5.1v-1.7h12.3C68.9,29.9,68.9,31.6,68.9,31.6z"/>
	</g>
</g>
</svg>
