<svg xmlns="http://www.w3.org/2000/svg" xmlns:xlink="http://www.w3.org/1999/xlink" width="141" height="78" viewBox="0 0 141 78"><use fill="#FFF" transform="scale(.99237)" xlink:href="#a"/><use fill="#FFF" transform="translate(56.567 18.9) scale(.99237)" xlink:href="#b"/><use fill="#FFF" transform="translate(84.17 18.855) scale(.99237)" xlink:href="#c"/><use fill="#FFF" transform="translate(63.614 18.855) scale(.99237)" xlink:href="#d"/><use fill="#FFF" transform="translate(74.25 18.855) scale(.99237)" xlink:href="#e"/><use fill="#FFF" transform="translate(44.672 18.855) scale(.99237)" xlink:href="#f"/><g fill="#FFF"><use transform="translate(86.998 38.05) scale(.99237)" xlink:href="#g"/><use transform="translate(33.496 38.05) scale(.99237)" xlink:href="#h"/><use transform="translate(20.84 45.107) scale(.99237)" xlink:href="#i"/><use transform="translate(20.886 38.006) scale(.99237)" xlink:href="#j"/><use transform="translate(67.967 37.96) scale(.99237)" xlink:href="#k"/><use transform="translate(77.706 38.005) scale(.99237)" xlink:href="#l"/><use transform="translate(77.752 45.063) scale(.99237)" xlink:href="#m"/><use transform="translate(98.757 41.736) scale(.99237)" xlink:href="#n"/><use transform="translate(105.4 38.005) scale(.99237)" xlink:href="#o"/><use transform="translate(45.256 41.692) scale(.99237)" xlink:href="#p"/><use transform="translate(51.899 38.005) scale(.99237)" xlink:href="#q"/></g><defs><path id="a" d="M134.8 6.9v64.8H6.9V6.9h127.9zm6.9-6.9H0v78.6h141.7V0z"/><path id="b" d="M1.085 12.774h-.27c-.498 0-.77-.181-.77-.498 0-.227.136-.408.407-.453.272-.09.453-.136.543-.226.09-.091.09-.227.09-.499V1.676c0-.226-.045-.408-.09-.453C.95 1.133.769 1.087.452.997.181.906 0 .725 0 .498 0 .136.271 0 .769 0h4.16c.544 0 .815.181.815.498 0 .227-.136.408-.452.499-.272.09-.453.18-.543.226a.976.976 0 00-.09.453v9.422c0 .227 0 .363.045.453.045.09.226.181.542.272.317.09.498.226.498.498 0 .363-.271.498-.814.498H1.085v-.045z"/><path id="c" d="M11.624 11.868c-.317-.09-.498-.362-.633-.815L8.14 0H4.975v.045l-3.03 10.102c-.136.498-.317.86-.543 1.087a3.15 3.15 0 01-.95.634c-.316.09-.452.272-.452.453 0 .363.271.498.86.498h2.623c.497 0 .768-.135.768-.453 0-.226-.135-.362-.361-.498l-.362-.136c-.407-.18-.588-.453-.588-.86l.045-.499.226-.724h3.754l.317 1.359v.226c0 .227-.136.408-.407.544-.272.136-.407.317-.407.498 0 .317.226.498.678.498h4.161c.543 0 .814-.136.814-.453 0-.181-.18-.362-.497-.453zM3.528 8.516L5.246 2.9 6.65 8.516H3.528z"/><path id="d" d="M9.362 0h-9v2.944c0 .363.18.544.497.544s.498-.181.588-.498c.407-1.36 1.99-1.767 2.669-1.767h1.04L0 11.913v.952h9.362V9.92c0-.362-.18-.543-.497-.543s-.498.181-.588.498c-.407 1.36-1.99 1.767-2.669 1.767H4.251L9.362 1.087V0z"/><path id="e" d="M9.317 0H.362v2.944c0 .363.18.544.497.544s.498-.181.588-.498c.407-1.36 1.99-1.767 2.669-1.767h1.04L0 11.913v.952h9.317V9.92c0-.362-.18-.543-.497-.543s-.498.181-.588.498c-.407 1.36-1.99 1.767-2.669 1.767H4.206L9.317 1.087V0z"/><path id="f" d="M11.126 3.941c0-.997-.271-1.857-.86-2.491C9.68.77 8.866.362 7.826.226 7.19.046 6.468 0 5.654 0H.814C.317 0 .045.181.045.498c0 .272.136.408.407.453.272.09.453.227.543.272.09.09.09.227.09.453v9.422c0 .227-.045.408-.135.498-.09.091-.272.182-.543.227-.271.09-.407.226-.407.498 0 .363.271.498.769.498h4.16c.589 0 .905-.18.905-.543 0-.272-.18-.453-.497-.498-.317-.046-.543-.136-.633-.227-.09-.09-.136-.272-.136-.543V7.882h.995c.814 0 1.538-.045 2.216-.181 1.04-.181 1.855-.59 2.443-1.223.588-.634.859-1.495.859-2.492.045 0 .045 0 .045-.045zM6.65 5.526c0 .952-.498 1.45-1.086 1.45H4.66V.996h.904c.588 0 1.13.499 1.086 1.45v3.08z"/><path id="g" d="M1.81 21.743h-.498c-.86 0-1.312-.271-1.312-.86 0-.408.226-.68.724-.816.497-.136.769-.271.904-.407.136-.136.181-.408.181-.861V2.854c0-.408-.045-.68-.136-.77-.09-.136-.407-.272-.904-.408C.27 1.495 0 1.223 0 .861 0 .27.452 0 1.312 0h7.734c.904 0 1.357.272 1.357.86 0 .408-.272.68-.77.816-.497.181-.813.317-.904.408-.09.136-.136.362-.136.77v15.99c0 .363.046.634.09.77.046.136.363.272.905.453.543.136.815.408.815.816 0 .589-.453.86-1.357.86H1.809z"/><path id="h" d="M9.634 20.067c-.543-.136-.86-.271-.905-.453-.045-.136-.09-.407-.09-.77V2.854c0-.408.045-.68.135-.77.09-.136.407-.272.905-.408.497-.181.769-.453.769-.815C10.448.27 9.995 0 9.09 0H1.809v18.89c0 .407-.045.724-.18.86-.136.136-.408.272-.905.408-.498.136-.724.408-.724.815 0 .59.452.861 1.312.861h7.734c.904 0 1.357-.272 1.357-.86.045-.499-.227-.77-.77-.907z"/><path id="i" d="M5.925 12.774c-1.266-.362-1.538-1.223-1.538-1.948V5.255L2.533 0v10.781c0 .725-.317 1.63-1.538 1.948-.678.181-.995.498-.995.997 0 .588.452.86 1.312.86l4.296.046c.86 0 1.312-.272 1.312-.861 0-.498-.317-.816-.995-.997z"/><path id="j" d="M13.342 4.711l-1.537 5.345L8.186 0H1.221C.407 0 0 .272 0 .86c0 .499.362.816 1.13.952.408.09.68.272.86.498.226.227.407.59.633 1.133l6.513 18.346h.814l3.392-11.823V4.71z"/><path id="k" d="M9.679 20.158c-.498-.136-.769-.272-.905-.408-.135-.136-.18-.407-.18-.86V0H1.356C.452 0 0 .272 0 .86c0 .408.226.68.769.816.497.181.814.317.904.453.09.136.136.362.136.77v15.99c0 .408-.045.725-.18.861-.136.136-.408.272-.905.408-.498.136-.724.408-.724.815 0 .59.452.86 1.357.86h7.689c.904 0 1.357-.27 1.357-.86 0-.407-.227-.68-.724-.815z"/><path id="l" d="M0 0v1.948h.045c.995 0 4.161.045 5.518 3.669.181.453.452.68.86.68.633 0 .904-.318.904-.997V0H0z"/><path id="m" d="M3.437 0c-.452 0-.769.317-.95.997-.361 1.268-1.22 1.54-1.944 1.54H0V4.62h.543c.723 0 1.628.318 1.945 1.54.18.68.497.997.95.997.587 0 .859-.453.859-1.313v-4.53C4.297.408 4.025 0 3.437 0z"/><path id="n" d="M6.558 16.443l-.633-.226c-.679-.272-.995-.77-.995-1.404 0-.227 0-.544.09-.816L8.232 3.488 7.372 0l-4.07 13.544c-.226.816-.543 1.45-.905 1.857-.362.408-.904.77-1.628 1.042-.543.182-.769.453-.769.816 0 .589.498.86 1.447.86H5.88c.859 0 1.311-.271 1.311-.77-.045-.453-.226-.724-.633-.906z"/><path id="o" d="M14.02 20.158c-.542-.181-.858-.634-1.04-1.404L8.097 0H1.809v.045l-.407 1.36L3.98 11.731l.679 2.718H.633L0 16.443h5.11l.589 2.31v.408c0 .408-.226.725-.724.952-.452.226-.724.498-.724.815 0 .544.408.815 1.176.815h7.96c.95 0 1.403-.271 1.403-.77 0-.362-.272-.68-.77-.815z"/><path id="p" d="M6.558 16.489l-.633-.227c-.679-.317-.995-.77-.995-1.45 0-.226 0-.543.09-.815L8.232 3.488 7.372 0l-4.07 13.544c-.226.816-.543 1.45-.905 1.857-.362.408-.904.77-1.628 1.042-.543.182-.769.453-.769.816 0 .589.498.86 1.447.86H5.88c.859 0 1.311-.271 1.311-.77-.045-.407-.226-.68-.633-.86z"/><path id="q" d="M14.02 20.158c-.542-.181-.858-.634-1.04-1.404L8.097 0H1.809v.045l-.407 1.36L3.98 11.731l.679 2.718H.633L0 16.443h5.11l.589 2.31v.408c0 .408-.226.725-.724.952-.452.226-.724.498-.724.815 0 .544.408.815 1.176.815h7.96c.95 0 1.403-.271 1.403-.77 0-.362-.226-.68-.77-.815z"/></defs></svg>